<svg xmlns="http://www.w3.org/2000/svg" width="239.644" height="69.856" viewBox="0 0 239.644 69.856">
  <g id="sobha-hartland-2_white" transform="translate(-0.6 -5.9)">
    <g id="Group_69966" data-name="Group 69966" transform="translate(0.6 58.432)">
      <g id="Group_69965" data-name="Group 69965">
        <path id="Path_97139" data-name="Path 97139" d="M119.46,71.961l-6.737,16.522h.962l1.925-4.732h6.256l1.925,4.732h2.486Zm-3.529,10.908,2.727-6.737,2.727,6.737ZM105.5,78.859H96.843v-6.5H94.437V88.483h2.406V79.821H105.5v8.662h2.406V72.362H105.5ZM144.082,72.2h13.554v.642h-5.694V88.483H149.7V72.844h-5.534V72.2Zm19.489,15.639h7.78v.642H161.325V72.2h2.246ZM202.629,72.2h.481V88.323l-11.228-12.03V88.4H191.4V72.042l11.228,11.95Zm27.59.08h2.246v16.2h-2.246Zm10.025,0v16.2H238v-16.2Zm-26.306,0h-6.577v16.2h6.577c3.85,0,6.9-3.208,6.9-8.1C220.755,75.49,217.788,72.282,213.938,72.282Zm-.4,15.559h-3.93v-15h3.93c2.727,0,4.973,3.048,4.973,7.539S216.344,87.841,213.537,87.841Zm-70.819.642h-2.406l-4.331-5.213a3.987,3.987,0,0,0,3.208-1.845.079.079,0,0,1,.08-.08,2.814,2.814,0,0,0,.4-.642.248.248,0,0,1,.08-.16,5.948,5.948,0,0,0,.642-2.727v-.4A4.455,4.455,0,0,0,137.425,73a4.507,4.507,0,0,0-1.043-.16h-3.689V88.483h-2.246v-16.2h7.058c2.566,0,4.812,2.566,4.812,5.694,0,2.887-1.6,5.133-3.609,5.454Zm38.337-16.522-6.737,16.522h.962l1.925-4.732h6.256l1.925,4.732h2.486Zm-3.529,10.908,2.727-6.737,2.727,6.737ZM42.385,79.34a3.348,3.348,0,0,0,2.486-3.288c0-2.566-2.406-3.689-5.374-3.689H36.049V88.483h4.491c3.368,0,6.336-1.363,6.336-4.491C46.877,81.505,45.032,79.821,42.385,79.34ZM40.38,87.6H38.455v-7.78h0v-.882h0V73.325h1.283c2.246,0,2.967,1.043,2.967,2.727,0,.241.16,2.967-2.005,3.449a5.451,5.451,0,0,1,2.406,1.283,3.889,3.889,0,0,1,1.283,3.128C44.39,86,43.187,87.6,40.38,87.6ZM6.294,78.137c-1.444-1.043-3.368-2.005-3.368-3.689,0-1.363,1.283-2.165,3.048-2.165a6.319,6.319,0,0,1,3.449,1.043L8.54,71.8a6.891,6.891,0,0,0-2.566-.4c-2.326,0-5.053.962-5.053,3.77,0,2.165,1.764,3.449,4.572,5.534,1.363.962,3.449,2.486,3.449,4.331,0,1.764-1.363,2.807-3.529,2.807A7.312,7.312,0,0,1,.6,85.917l1.123,1.925a8.506,8.506,0,0,0,3.689.8c2.085,0,5.775-.722,5.775-4.411C11.187,81.666,9.342,80.222,6.294,78.137Zm16.682-6.1c-4.331,0-7.7,3.529-7.7,8.341,0,4.892,3.368,8.341,7.7,8.341s7.7-3.449,7.7-8.341C30.6,75.651,27.227,72.042,22.976,72.042Zm0,15.88c-3.208,0-5.293-3.048-5.293-7.459S19.768,73,22.976,73s5.293,3.048,5.293,7.459C28.27,84.794,26.1,87.922,22.976,87.922Zm54.538-15.96L70.7,88.483h.962l1.925-4.732H79.84l1.925,4.732h2.486ZM73.985,82.869l2.727-6.737,2.727,6.737Zm-10.346-4.01H54.977v-6.5H52.571V88.483h2.406V79.741h8.662V88.4h2.406V72.362H63.639v6.5Z" transform="translate(-0.6 -71.4)"/>
      </g>
    </g>
    <path id="Path_97140" data-name="Path 97140" d="M164.98,25.79a7,7,0,0,0-1.925-4.812,6.833,6.833,0,0,0-.722-5.133,7.025,7.025,0,0,0-4.09-3.208,7.025,7.025,0,0,0-3.208-4.09,6.833,6.833,0,0,0-5.133-.722,6.978,6.978,0,0,0-9.624,0,6.833,6.833,0,0,0-5.133.722,7.025,7.025,0,0,0-3.208,4.09,7.025,7.025,0,0,0-4.09,3.208,6.833,6.833,0,0,0-.722,5.133,6.978,6.978,0,0,0,0,9.624,6.833,6.833,0,0,0,.722,5.133,7.025,7.025,0,0,0,4.09,3.208,7.025,7.025,0,0,0,3.208,4.09,6.833,6.833,0,0,0,5.133.722,6.978,6.978,0,0,0,9.624,0,6.833,6.833,0,0,0,5.133-.722,7.025,7.025,0,0,0,3.208-4.09,7.025,7.025,0,0,0,4.09-3.208,6.833,6.833,0,0,0,.722-5.133A7.069,7.069,0,0,0,164.98,25.79Zm-1.043,0a6.055,6.055,0,0,1-1.283,3.689,7.1,7.1,0,0,0-2.887-3.288,3.746,3.746,0,0,0-.8-.4,4.3,4.3,0,0,0,.882-.4,6.93,6.93,0,0,0,2.887-3.208A6.091,6.091,0,0,1,163.938,25.79Zm-7.3,8.181a5.676,5.676,0,0,1,.642,4.09,5.719,5.719,0,0,1-4.09-.722,5.572,5.572,0,0,1-2.085-2.005h0a5.859,5.859,0,0,1-.722-4.171,5.823,5.823,0,0,1,4.171.8h0A5.026,5.026,0,0,1,156.639,33.971ZM151.025,38.7a6.008,6.008,0,0,1-1.444,3.85,5.922,5.922,0,0,1-3.128-2.647,7.046,7.046,0,0,1-.8-2.807h0a6.16,6.16,0,0,1,1.444-4.01,5.681,5.681,0,0,1,3.208,2.727h0A6.978,6.978,0,0,1,151.025,38.7Zm-6.5-1.6a5.951,5.951,0,0,1-.8,2.807,6.09,6.09,0,0,1-3.208,2.647,6.008,6.008,0,0,1-1.444-3.85A5.418,5.418,0,0,1,139.8,35.9h0a5.844,5.844,0,0,1,3.288-2.727,5.44,5.44,0,0,1,1.444,3.93Zm-5.614-1.764a5.572,5.572,0,0,1-2.085,2.005,5.676,5.676,0,0,1-4.09.642,5.719,5.719,0,0,1,.722-4.09,5.572,5.572,0,0,1,2.005-2.085h0a5.859,5.859,0,0,1,4.171-.722,5.336,5.336,0,0,1-.722,4.251Zm-5.374-17.8a5.676,5.676,0,0,1-.642-4.09,5.719,5.719,0,0,1,4.09.722,5.572,5.572,0,0,1,2.085,2.005h0a5.859,5.859,0,0,1,.722,4.171,5.823,5.823,0,0,1-4.171-.8h0A4.581,4.581,0,0,1,133.541,17.529Zm5.614-4.652a6.008,6.008,0,0,1,1.444-3.85,6.4,6.4,0,0,1,3.208,2.647,7.046,7.046,0,0,1,.8,2.807h0a6.16,6.16,0,0,1-1.444,4.01,5.681,5.681,0,0,1-3.208-2.727h0A6,6,0,0,1,139.155,12.878Zm6.5,1.524a5.95,5.95,0,0,1,.8-2.807,6.09,6.09,0,0,1,3.208-2.647,6.008,6.008,0,0,1,1.444,3.85,5.418,5.418,0,0,1-.722,2.807h0a5.948,5.948,0,0,1-3.208,2.727,4.971,4.971,0,0,1-1.524-3.93Zm5.614,1.845a5.572,5.572,0,0,1,2.085-2.005,5.676,5.676,0,0,1,4.09-.642,5.719,5.719,0,0,1-.722,4.09,5.572,5.572,0,0,1-2.005,2.085h0a5.859,5.859,0,0,1-4.171.722,5.283,5.283,0,0,1,.722-4.251Zm5.133,9.063h0a6.009,6.009,0,0,1-4.01-1.444,5.681,5.681,0,0,1,2.727-3.208h0a5.418,5.418,0,0,1,2.807-.722,6.008,6.008,0,0,1,3.85,1.444,6.4,6.4,0,0,1-2.647,3.208A7.616,7.616,0,0,1,156.4,25.309Zm-3.93,4.732a5.925,5.925,0,0,0-1.684,0,3.252,3.252,0,0,1,.4-.722l.481-.722A5.108,5.108,0,0,0,152.469,30.041Zm-3.128,3.128a13.949,13.949,0,0,0-1.444-.882l.722-.481a2.849,2.849,0,0,1,.722-.321A5.926,5.926,0,0,0,149.341,33.169Zm-7.058-.882a6.291,6.291,0,0,0-1.444.882,5.924,5.924,0,0,0,0-1.684,3.25,3.25,0,0,1,.722.4A3.251,3.251,0,0,1,142.283,32.287Zm-4.572-10.827a5.925,5.925,0,0,0,1.684,0,3.252,3.252,0,0,1-.4.722l-.481.722A6.5,6.5,0,0,0,137.712,21.459Zm.4,4.331a2.472,2.472,0,0,1-.08.8,5.546,5.546,0,0,0-1.524-.8,9.143,9.143,0,0,0,1.524-.8A2.472,2.472,0,0,1,138.113,25.79Zm.481,2.727.481.722a2.848,2.848,0,0,1,.321.722,5.925,5.925,0,0,0-1.684,0A6.292,6.292,0,0,0,138.594,28.517Zm2.246-10.105a13.952,13.952,0,0,0,1.444.882l-.722.481a2.849,2.849,0,0,1-.722.321A5.925,5.925,0,0,0,140.839,18.412Zm7.058.882a6.292,6.292,0,0,0,1.444-.882,5.925,5.925,0,0,0,0,1.684,3.251,3.251,0,0,1-.722-.4A3.251,3.251,0,0,1,147.9,19.294Zm3.689,3.689-.481-.722a2.849,2.849,0,0,1-.321-.722,5.925,5.925,0,0,0,1.684,0A8.672,8.672,0,0,0,151.587,22.983Zm.481,2.807a2.473,2.473,0,0,1,.08-.8,5.547,5.547,0,0,0,1.524.8,9.144,9.144,0,0,0-1.524.8A2.473,2.473,0,0,1,152.068,25.79Zm-6.1-7.058c-.241,0-.561.08-.8.08a2.472,2.472,0,0,1-.8-.08,5.547,5.547,0,0,0,.8-1.524A4,4,0,0,0,145.972,18.732ZM134.985,20.5h0a5.844,5.844,0,0,1,2.727,3.288,6.16,6.16,0,0,1-4.01,1.444h-.08a5.951,5.951,0,0,1-2.807-.8,6.09,6.09,0,0,1-2.647-3.208,6.008,6.008,0,0,1,3.85-1.444A7.68,7.68,0,0,1,134.985,20.5ZM133.7,26.271h0a5.864,5.864,0,0,1,4.01,1.444,5.681,5.681,0,0,1-2.727,3.208h0a5.418,5.418,0,0,1-2.807.722,6.008,6.008,0,0,1-3.85-1.444,6.4,6.4,0,0,1,2.647-3.208A5.783,5.783,0,0,1,133.7,26.271Zm10.506,6.5c.241,0,.561-.08.8-.08a2.473,2.473,0,0,1,.8.08,5.546,5.546,0,0,0-.8,1.524A4.672,4.672,0,0,0,144.208,32.768ZM155.2,31h0a5.844,5.844,0,0,1-2.727-3.288,6.16,6.16,0,0,1,4.01-1.444h0a5.951,5.951,0,0,1,2.807.8,6.09,6.09,0,0,1,2.647,3.208,6.008,6.008,0,0,1-3.85,1.444A5.51,5.51,0,0,1,155.2,31Zm6.176-14.6a5.823,5.823,0,0,1,.722,3.77A6.608,6.608,0,0,0,158,18.813a3.9,3.9,0,0,0-.962.08,6.937,6.937,0,0,0,.561-.8,6.731,6.731,0,0,0,.882-4.251A5.622,5.622,0,0,1,161.371,16.406Zm-6.817-6.9a5.577,5.577,0,0,1,2.486,2.967,6.731,6.731,0,0,0-4.251.882,4.869,4.869,0,0,0-.8.561,3.9,3.9,0,0,0,.08-.962A7.016,7.016,0,0,0,150.7,8.787,5.963,5.963,0,0,1,154.554,9.509ZM145.17,6.943a6.055,6.055,0,0,1,3.689,1.283,7.1,7.1,0,0,0-3.288,2.887,3.746,3.746,0,0,0-.4.8,4.3,4.3,0,0,0-.4-.882,6.93,6.93,0,0,0-3.208-2.887A5.91,5.91,0,0,1,145.17,6.943Zm-9.464,2.486a5.823,5.823,0,0,1,3.769-.722,6.608,6.608,0,0,0-1.363,4.09,3.9,3.9,0,0,0,.08.962,6.938,6.938,0,0,0-.8-.561,6.731,6.731,0,0,0-4.251-.882A6.8,6.8,0,0,1,135.707,9.429Zm-6.9,6.9a5.577,5.577,0,0,1,2.967-2.486,6.731,6.731,0,0,0,.882,4.251,4.869,4.869,0,0,0,.561.8,3.9,3.9,0,0,0-.962-.08,7.016,7.016,0,0,0-4.171,1.363A6.517,6.517,0,0,1,128.809,16.326Zm-2.566,9.384a6.055,6.055,0,0,1,1.283-3.689,7.1,7.1,0,0,0,2.887,3.288,3.746,3.746,0,0,0,.8.4,2.509,2.509,0,0,0-.8.4,6.93,6.93,0,0,0-2.887,3.208A5.66,5.66,0,0,1,126.243,25.71Zm2.566,9.464a5.823,5.823,0,0,1-.722-3.77,6.608,6.608,0,0,0,4.09,1.363,3.9,3.9,0,0,0,.962-.08,6.939,6.939,0,0,0-.561.8,6.731,6.731,0,0,0-.882,4.251A6,6,0,0,1,128.809,35.174Zm6.817,6.9A5.577,5.577,0,0,1,133.14,39.1a6.731,6.731,0,0,0,4.251-.882,4.869,4.869,0,0,0,.8-.561,3.9,3.9,0,0,0-.08.962,7.016,7.016,0,0,0,1.363,4.171A6.517,6.517,0,0,1,135.626,42.071Zm9.384,2.486a6.055,6.055,0,0,1-3.689-1.283,7.1,7.1,0,0,0,3.288-2.887,3.749,3.749,0,0,0,.4-.8,4.3,4.3,0,0,0,.4.882,6.93,6.93,0,0,0,3.208,2.887A5.91,5.91,0,0,1,145.01,44.557Zm9.464-2.486a5.823,5.823,0,0,1-3.769.722,6.608,6.608,0,0,0,1.363-4.09,3.9,3.9,0,0,0-.08-.962,6.94,6.94,0,0,0,.8.561,6.731,6.731,0,0,0,4.251.882A6,6,0,0,1,154.474,42.071Zm6.9-6.817A5.577,5.577,0,0,1,158.4,37.74a6.731,6.731,0,0,0-.882-4.251,4.869,4.869,0,0,0-.561-.8,3.9,3.9,0,0,0,.962.08,7.016,7.016,0,0,0,4.171-1.363A6.517,6.517,0,0,1,161.371,35.254Zm-3.93-9.544A12.392,12.392,0,1,1,144.93,13.279,12.393,12.393,0,0,1,157.441,25.71Z" transform="translate(-24.668 0)"/>
  </g>
</svg>
